<svg width="32" height="32" viewBox="0 0 60 60" fill="none"
    xmlns="http://www.w3.org/2000/svg">
    <rect width="60" height="60" rx="10" fill="url(#paint0_linear_77_11)"/>
    <path d="M45.8333 12.125V20.2917M49.9166 16.2083H41.75M13.1666 40.7083V44.7917M15.2083 42.75H11.125M25.288 37.6458C25.1057 36.9393 24.7375 36.2945 24.2215 35.7785C23.7055 35.2625 23.0607 34.8942 22.3541 34.712L9.82852 31.482C9.61482 31.4214 9.42674 31.2927 9.29281 31.1155C9.15889 30.9382 9.08643 30.7221 9.08643 30.5C9.08643 30.2779 9.15889 30.0618 9.29281 29.8846C9.42674 29.7073 9.61482 29.5786 9.82852 29.518L22.3541 26.286C23.0605 26.1039 23.7051 25.7359 24.2211 25.2203C24.737 24.7047 25.1054 24.0604 25.288 23.3542L28.5179 10.8285C28.578 10.614 28.7066 10.425 28.8841 10.2903C29.0615 10.1557 29.2782 10.0828 29.501 10.0828C29.7238 10.0828 29.9405 10.1557 30.1179 10.2903C30.2954 10.425 30.424 10.614 30.4841 10.8285L33.7119 23.3542C33.8942 24.0607 34.2625 24.7055 34.7785 25.2215C35.2944 25.7375 35.9393 26.1058 36.6458 26.288L49.1714 29.5159C49.3868 29.5753 49.5768 29.7038 49.7122 29.8815C49.8475 30.0593 49.9208 30.2766 49.9208 30.5C49.9208 30.7234 49.8475 30.9407 49.7122 31.1185C49.5768 31.2962 49.3868 31.4247 49.1714 31.4841L36.6458 34.712C35.9393 34.8942 35.2944 35.2625 34.7785 35.7785C34.2625 36.2945 33.8942 36.9393 33.7119 37.6458L30.482 50.1715C30.422 50.386 30.2934 50.575 30.1159 50.7097C29.9384 50.8443 29.7217 50.9172 29.499 50.9172C29.2762 50.9172 29.0595 50.8443 28.882 50.7097C28.7045 50.575 28.5759 50.386 28.5159 50.1715L25.288 37.6458Z" stroke="white" stroke-width="4" stroke-linecap="round" stroke-linejoin="round"/>
    <defs>
        <linearGradient id="paint0_linear_77_11" x1="67" y1="69" x2="-8" y2="-5" gradientUnits="userSpaceOnUse">
            <stop stop-color="#3B82F6"/>
            <stop offset="0.5" stop-color="#A855F7"/>
            <stop offset="1" stop-color="#3B82F6"/>
        </linearGradient>
    </defs>
</svg> 